<svg width="16" height="14" viewBox="0 0 16 14" fill="none" xmlns="http://www.w3.org/2000/svg">
<path fill-rule="evenodd" clip-rule="evenodd" d="M0.336488 3.96098C0.103035 6.13006 0.113442 8.63171 0.438295 10.792C0.618043 11.9873 1.5936 12.9037 2.79783 13.0084L4.05635 13.1178C6.68056 13.3459 9.31961 13.3459 11.9438 13.1178L13.2023 13.0084C14.4066 12.9037 15.3821 11.9873 15.5619 10.792C15.8867 8.6317 15.8972 6.1302 15.6637 3.96111C15.6335 3.70964 15.5996 3.45851 15.5619 3.2078C15.3821 2.01248 14.4066 1.09611 13.2023 0.991427L11.9438 0.882025C9.31961 0.653908 6.68056 0.653908 4.05635 0.882025L2.79782 0.991427C1.5936 1.09611 0.618043 2.01248 0.438295 3.2078C0.400601 3.45847 0.366665 3.70955 0.336488 3.96098ZM4.1646 2.12733C6.71678 1.90547 9.28339 1.90547 11.8356 2.12733L13.0941 2.23673C13.7227 2.29137 14.2319 2.76972 14.3258 3.39368C14.3355 3.45848 14.345 3.52331 14.3542 3.58817L9.72004 6.1627C8.65038 6.75696 7.34973 6.75696 6.28007 6.1627L1.64595 3.5882C1.65517 3.52333 1.66465 3.45849 1.6744 3.39368C1.76823 2.76972 2.27747 2.29137 2.90608 2.23673L4.1646 2.12733ZM14.5072 4.93314C14.6688 6.82293 14.6083 8.72697 14.3258 10.6061C14.2319 11.2301 13.7227 11.7084 13.0941 11.7631L11.8356 11.8725C9.28339 12.0943 6.71678 12.0943 4.1646 11.8725L2.90608 11.7631C2.27747 11.7084 1.76823 11.2301 1.6744 10.6061C1.39182 8.72698 1.33135 6.82295 1.49299 4.93317L5.67301 7.2554C7.12021 8.0594 8.8799 8.0594 10.3271 7.2554L14.5072 4.93314Z" fill="white"/>
</svg>
