<svg width="20" height="20" viewBox="0 0 20 20" fill="none" xmlns="http://www.w3.org/2000/svg">
<path fill-rule="evenodd" clip-rule="evenodd" d="M2.33649 6.96098C2.10304 9.13006 2.11344 11.6317 2.43829 13.792C2.61804 14.9873 3.5936 15.9037 4.79783 16.0084L6.05635 16.1178C8.68056 16.3459 11.3196 16.3459 13.9438 16.1178L15.2023 16.0084C16.4066 15.9037 17.3821 14.9873 17.5619 13.792C17.8867 11.6317 17.8972 9.1302 17.6637 6.96111C17.6335 6.70964 17.5996 6.45851 17.5619 6.2078C17.3821 5.01248 16.4066 4.09611 15.2023 3.99143L13.9438 3.88203C11.3196 3.65391 8.68056 3.65391 6.05635 3.88203L4.79782 3.99143C3.5936 4.09611 2.61804 5.01248 2.43829 6.2078C2.4006 6.45847 2.36667 6.70955 2.33649 6.96098ZM6.1646 5.12733C8.71678 4.90547 11.2834 4.90547 13.8356 5.12733L15.0941 5.23673C15.7227 5.29137 16.2319 5.76972 16.3258 6.39368C16.3355 6.45848 16.345 6.52331 16.3542 6.58817L11.72 9.1627C10.6504 9.75696 9.34973 9.75696 8.28007 9.1627L3.64595 6.5882C3.65517 6.52333 3.66465 6.45849 3.6744 6.39368C3.76823 5.76972 4.27747 5.29137 4.90608 5.23673L6.1646 5.12733ZM16.5072 7.93314C16.6688 9.82293 16.6083 11.727 16.3258 13.6061C16.2319 14.2301 15.7227 14.7084 15.0941 14.7631L13.8356 14.8725C11.2834 15.0943 8.71678 15.0943 6.1646 14.8725L4.90608 14.7631C4.27747 14.7084 3.76823 14.2301 3.6744 13.6061C3.39182 11.727 3.33135 9.82295 3.49299 7.93317L7.67301 10.2554C9.12021 11.0594 10.8799 11.0594 12.3271 10.2554L16.5072 7.93314Z" fill="white"/>
</svg>
