<svg width="185" height="55" viewBox="0 0 185 55" fill="none" xmlns="http://www.w3.org/2000/svg">
<path fill-rule="evenodd" clip-rule="evenodd" d="M44.9573 8.61881V32.1062C44.9573 34.9139 42.6714 37.1816 39.8411 37.1816C37.0109 37.1816 34.7249 34.9139 34.7249 32.1062L34.725 24.4391L32.7111 25.573V32.0523C32.7111 35.9398 35.9224 39.1255 39.8412 39.1255C43.76 39.1255 46.9712 35.9398 46.9712 32.0523V7.05303C46.9712 6.89104 46.9712 6.78302 46.9712 6.62109C46.318 7.37696 45.6649 8.02489 44.9573 8.61881Z" fill="url(#paint0_linear_911_9000)"/>
<path fill-rule="evenodd" clip-rule="evenodd" d="M45.9919 3.54369C45.0122 1.92391 43.4882 0.736036 41.6376 0.250038C39.7871 -0.235893 37.8821 0.0340518 36.1949 0.951983L23.5132 8.24121L10.7771 0.952052C9.14427 -0.019831 7.18484 -0.235823 5.3343 0.250107C3.48375 0.736037 1.95976 1.92391 0.980095 3.54376C0.381399 4.56962 0.0547897 5.70357 0.000427246 6.89142C0.000427246 6.94541 0.000427246 6.99942 0.000427246 7.05342V7.10743C0.000427246 7.16143 0.000427246 7.21542 0.000427246 7.32342C0.000427246 7.86335 0.109288 8.40329 0.21815 8.94321C0.544691 10.1311 1.14347 11.1569 1.95985 12.0209C2.39525 12.5068 2.93951 12.8848 3.53821 13.2627L19.7032 22.4957C20.6829 23.0356 21.7171 23.3596 22.8056 23.4136C22.9689 23.4136 23.1322 23.4136 23.241 23.4136C23.2955 23.4136 23.3499 23.4136 23.4043 23.4136C23.4588 23.4136 23.5132 23.4136 23.5676 23.4136C23.7309 23.4136 23.8398 23.4136 24.003 23.4136C25.0916 23.3596 26.1257 23.0357 27.1054 22.4957L43.2705 13.2627C43.8692 12.9388 44.359 12.5068 44.8488 12.0749C45.6653 11.2109 46.264 10.1851 46.5905 8.99721C46.6994 8.56528 46.8082 8.07929 46.8082 7.59336V7.53935C46.8082 7.48535 46.8082 7.43137 46.8082 7.37735C46.9715 5.97348 46.645 4.67764 45.9919 3.54369ZM44.9032 7.59329C44.74 9.15908 43.8692 10.6709 42.3452 11.5349L30.1534 18.5001L28.6838 19.31L26.1801 20.7678C25.3092 21.2538 24.384 21.4698 23.4587 21.4158C22.5334 21.4698 21.6081 21.2538 20.7373 20.7678L18.2336 19.31L16.764 18.5001L4.57224 11.5348C3.37482 10.8329 2.5584 9.75303 2.17743 8.45716C2.06855 8.13322 2.01412 7.7552 2.01412 7.43129C2.01412 7.37729 2.01412 7.3233 2.01412 7.26928C1.95969 6.29742 2.23187 5.37949 2.72171 4.56958C3.42927 3.38171 4.51783 2.57176 5.8241 2.19383C6.25951 2.08583 6.69494 2.03184 7.18477 2.03184C8.05565 2.03184 8.9809 2.24785 9.74291 2.73378L21.4448 9.42902L22.4245 10.0229L23.4042 10.5629H23.4586L24.4383 10.0229L25.418 9.42902L35.5416 3.59765L37.1199 2.67972C37.9364 2.24778 38.8072 1.97777 39.678 1.97777C40.1134 1.97777 40.5489 2.03177 41.0387 2.13979C42.345 2.5177 43.488 3.32764 44.1411 4.51551C44.7945 5.48751 45.0121 6.51344 44.9032 7.59329Z" fill="#D9D9D9"/>
<path fill-rule="evenodd" clip-rule="evenodd" d="M44.9573 8.61881V32.1062C44.9573 34.9139 42.6714 37.1816 39.8411 37.1816C37.0109 37.1816 34.7249 34.9139 34.7249 32.1062L34.725 24.4391L32.7111 25.573V32.0523C32.7111 35.9398 35.9224 39.1255 39.8412 39.1255C43.76 39.1255 46.9712 35.9398 46.9712 32.0523V7.05303C46.9712 6.89104 46.9712 6.78302 46.9712 6.62109C46.318 7.37696 45.6649 8.02489 44.9573 8.61881Z" fill="url(#paint1_linear_911_9000)"/>
<path fill-rule="evenodd" clip-rule="evenodd" d="M2.06825 8.61881V32.1062C2.06825 34.9139 4.3542 37.1816 7.18448 37.1816C10.0147 37.1816 12.3007 34.9139 12.3007 32.1062V24.4391L14.3145 25.573V32.0523C14.3145 35.9398 11.1033 39.1255 7.18448 39.1255C3.26567 39.1255 0.0544128 35.9398 0.0544128 32.0523V7.05303C0.0544128 6.89104 0.0544128 6.78302 0.0544128 6.62109C0.653109 7.37696 1.30626 8.02489 2.06825 8.61881Z" fill="url(#paint2_linear_911_9000)"/>
<path fill-rule="evenodd" clip-rule="evenodd" d="M45.9919 3.54369C45.0122 1.92391 43.4882 0.736036 41.6376 0.250038C39.7871 -0.235893 37.8821 0.0340518 36.1949 0.951983L23.5132 8.24121L10.7771 0.952052C9.14427 -0.019831 7.18484 -0.235823 5.3343 0.250107C3.48375 0.736037 1.95976 1.92391 0.980095 3.54376C0.381399 4.56962 0.0547897 5.70357 0.000427246 6.89142C0.000427246 6.94541 0.000427246 6.99942 0.000427246 7.05342V7.10743C0.000427246 7.16143 0.000427246 7.21542 0.000427246 7.32342C0.000427246 7.86335 0.109288 8.40329 0.21815 8.94321C0.544691 10.1311 1.14347 11.1569 1.95985 12.0209C2.39525 12.5068 2.93951 12.8848 3.53821 13.2627L19.7032 22.4957C20.6829 23.0356 21.7171 23.3596 22.8056 23.4136C22.9689 23.4136 23.1322 23.4136 23.241 23.4136C23.2955 23.4136 23.3499 23.4136 23.4043 23.4136C23.4588 23.4136 23.5132 23.4136 23.5676 23.4136C23.7309 23.4136 23.8398 23.4136 24.003 23.4136C25.0916 23.3596 26.1257 23.0357 27.1054 22.4957L43.2705 13.2627C43.8692 12.9388 44.359 12.5068 44.8488 12.0749C45.6653 11.2109 46.264 10.1851 46.5905 8.99721C46.6994 8.56528 46.8082 8.07929 46.8082 7.59336V7.53935C46.8082 7.48535 46.8082 7.43137 46.8082 7.37735C46.9715 5.97348 46.645 4.67764 45.9919 3.54369ZM44.9032 7.59329C44.74 9.15908 43.8692 10.6709 42.3452 11.5349L30.1534 18.5001L28.6838 19.31L26.1801 20.7678C25.3092 21.2538 24.384 21.4698 23.4587 21.4158C22.5334 21.4698 21.6081 21.2538 20.7373 20.7678L18.2336 19.31L16.764 18.5001L4.57224 11.5348C3.37482 10.8329 2.5584 9.75303 2.17743 8.45716C2.06855 8.13322 2.01412 7.7552 2.01412 7.43129C2.01412 7.37729 2.01412 7.3233 2.01412 7.26928C1.95969 6.29742 2.23187 5.37949 2.72171 4.56958C3.42927 3.38171 4.51783 2.57176 5.8241 2.19383C6.25951 2.08583 6.69494 2.03184 7.18477 2.03184C8.05565 2.03184 8.9809 2.24785 9.74291 2.73378L21.4448 9.42902L22.4245 10.0229L23.4042 10.5629H23.4586L24.4383 10.0229L25.418 9.42902L35.5416 3.59765L37.1199 2.67972C37.9364 2.24778 38.8072 1.97777 39.678 1.97777C40.1134 1.97777 40.5489 2.03177 41.0387 2.13979C42.345 2.5177 43.488 3.32764 44.1411 4.51551C44.7945 5.48751 45.0121 6.51344 44.9032 7.59329Z" fill="#D9D9D9"/>
<path fill-rule="evenodd" clip-rule="evenodd" d="M45.9371 7.10647C45.9371 7.32246 45.9371 7.5384 45.8826 7.75439C45.7738 8.72625 45.4472 9.64417 44.903 10.4541C44.4131 11.21 43.7056 11.912 42.8347 12.3979L29.4454 20.0651L26.724 21.6309C25.6899 22.2248 24.6013 22.4948 23.5128 22.4408C21.4445 22.3868 19.4307 21.3069 18.3421 19.4171L18.2877 19.3631L20.7914 20.821C21.6622 21.3069 22.5875 21.5229 23.5128 21.4689C24.4381 21.5229 25.3633 21.3069 26.2342 20.821L28.7379 19.3631L30.2075 18.5532L42.3992 11.588C43.8688 10.7241 44.794 9.26627 44.9573 7.6464C45.0662 6.62054 44.8485 5.59461 44.3042 4.62275C43.5966 3.43488 42.5081 2.62494 41.2018 2.247C39.8956 1.86909 38.4804 2.08501 37.283 2.73293L25.5811 9.42818L24.6014 10.0221L23.6217 10.562H23.5673L22.5876 10.0221L23.5673 9.42818L24.547 8.83426L36.7932 1.81503C39.7323 0.141223 43.4878 1.11308 45.1751 4.02873C45.6649 5.00066 45.9371 6.08054 45.9371 7.10647Z" fill="white"/>
<path fill-rule="evenodd" clip-rule="evenodd" d="M46.9168 7.05298C46.9168 5.86511 46.5902 4.67726 45.9371 3.54338C44.9574 1.9236 43.4334 0.735722 41.5829 0.249724C39.7323 -0.236206 37.8274 0.0337384 36.1401 0.951669L23.5128 8.24083L22.5332 8.83477L21.5535 9.42869L22.5332 10.0226L23.5128 10.5626H23.5673L24.547 10.0226L25.5266 9.42869L37.2286 2.73344C38.426 2.03152 39.7867 1.86953 41.1474 2.24751C42.4537 2.62545 43.5966 3.43539 44.2498 4.62326C44.794 5.59512 45.0118 6.62105 44.9029 7.64691C44.7396 9.21271 43.8688 10.7246 42.3448 11.5885L30.153 18.4997L28.6834 19.3096L26.1798 20.7675C25.3089 21.2534 24.3836 21.4694 23.4583 21.4154C22.533 21.4694 21.6078 21.2534 20.7369 20.7675L18.2332 19.3096L16.7637 18.4997C16.927 18.9856 17.1447 19.4715 17.3624 19.9035C17.4168 19.9575 17.4168 20.0115 17.4713 20.0655C18.6687 22.0093 20.6825 23.1972 22.8051 23.4132C23.0229 23.4132 23.1861 23.4672 23.4038 23.4672C23.4583 23.4672 23.5127 23.4672 23.5672 23.4672C24.7646 23.4672 26.0164 23.1432 27.1049 22.4953L43.27 13.2623C43.8687 12.9384 44.413 12.5064 44.8484 12.0745C46.0458 10.8326 46.7533 9.26683 46.8622 7.59298V7.53897C46.8622 7.43097 46.8622 7.32297 46.8622 7.21504L46.9168 7.05298Z" fill="#D9D9D9"/>
<path fill-rule="evenodd" clip-rule="evenodd" d="M28.7379 19.3098C28.7379 19.3098 28.7379 19.3638 28.6834 19.3638C27.5949 21.2536 25.5811 22.3875 23.5128 22.3875C22.4243 22.3875 21.3357 22.1715 20.3016 21.5775L17.5801 20.0117L4.19086 12.3446C3.31999 11.8586 2.61251 11.1567 2.12261 10.4008C1.57835 9.59082 1.25174 8.67297 1.14294 7.75504C1.14294 7.53905 1.08847 7.32313 1.08847 7.10712C1.08847 6.08126 1.36065 5.00134 1.90492 4.08347C3.59217 1.1678 7.34768 0.195871 10.2868 1.86974L22.533 8.88897L23.5127 9.4829L24.4924 10.0228L23.5127 10.5628H23.4583L22.4786 10.0228L21.4989 9.4289L9.79698 2.73365C8.98054 2.30172 8.10975 2.03173 7.2389 2.03173C6.80349 2.03173 6.36801 2.08573 5.87817 2.19372C4.5719 2.57166 3.42893 3.3816 2.77581 4.56945C2.28597 5.37938 2.06822 6.35125 2.06822 7.26918C2.06822 7.32317 2.06822 7.37716 2.06822 7.43118C2.06822 7.7551 2.12267 8.1331 2.23153 8.45704C2.6125 9.75291 3.42892 10.8868 4.62634 11.5347L16.8181 18.4999L18.2877 19.3099L20.7914 20.7677C21.6622 21.2537 22.5875 21.4697 23.5128 21.4157C24.4381 21.4697 25.3633 21.2537 26.2342 20.7677L28.7379 19.3098Z" fill="white"/>
<path fill-rule="evenodd" clip-rule="evenodd" d="M28.7379 19.3107L26.2342 20.7686C25.3633 21.2545 24.4381 21.4705 23.5128 21.4165C22.5875 21.4705 21.6622 21.2545 20.7914 20.7686L18.2877 19.3107L16.8181 18.5008L4.62634 11.5356C3.42892 10.8336 2.6125 9.75378 2.23153 8.45791C2.12266 8.13397 2.06822 7.75596 2.06822 7.43204C2.06822 7.37804 2.06822 7.32406 2.06822 7.27004C2.01379 6.35211 2.28597 5.43424 2.7758 4.57033C3.48336 3.38246 4.57189 2.57252 5.87817 2.19458C6.31357 2.08659 6.74904 2.03259 7.23889 2.03259C8.10975 2.03259 9.03497 2.24861 9.79698 2.73454L21.4989 9.42977L22.4786 10.0237L23.4583 10.5636H23.5127L24.4924 10.0237L25.4721 9.42977L24.4924 8.88983L23.5127 8.29591L10.7766 1.00673C9.1438 0.034874 7.18438 -0.181141 5.33384 0.304789C3.48329 0.790719 1.95927 1.97859 0.979607 3.59844C0.380911 4.62432 0.0543015 5.75824 -6.10352e-05 6.89211C-6.10352e-05 6.94611 -6.10352e-05 6.94612 -6.10352e-05 7.00012V7.05412V7.10812C-6.10352e-05 7.16211 -6.10352e-05 7.21611 -6.10352e-05 7.3241C-6.10352e-05 7.86405 0.108799 8.40397 0.217662 8.9439C0.544202 10.1317 1.14298 11.1576 1.95936 12.0216C2.39476 12.5075 2.939 12.8855 3.53772 13.2094L19.7027 22.4424C20.8457 23.0903 22.0431 23.4142 23.2406 23.4142C23.295 23.4142 23.3494 23.4142 23.4038 23.4142C23.6216 23.4142 23.7848 23.4142 24.0026 23.3602C26.1253 23.1443 28.1391 21.9564 29.3365 20.0126C29.3909 19.9586 29.3909 19.9046 29.4453 19.8506C29.7175 19.4187 30.0477 19.0057 30.211 18.5197L28.7379 19.3107Z" fill="#D9D9D9"/>
<path fill-rule="evenodd" clip-rule="evenodd" d="M63.626 38.9108C61.6666 38.9108 59.8705 38.4789 58.3465 37.6149C56.8225 36.751 55.6251 35.5632 54.7543 34.0514C53.8834 32.5395 53.448 30.7577 53.448 28.8139C53.448 26.8161 53.8834 25.0883 54.6999 23.5225C55.5163 22.0107 56.6593 20.8228 58.0744 19.9589C59.544 19.095 61.1768 18.6631 63.0818 18.6631C64.9323 18.6631 66.5651 19.095 67.9258 19.9049C69.2865 20.7689 70.3751 21.9027 71.1371 23.3605C71.8991 24.8184 72.2801 26.5462 72.2801 28.436C72.2801 28.8139 72.1712 29.1379 71.8991 29.3539C71.6269 29.5699 71.3548 29.6778 70.9194 29.6778H56.1652L56.1169 28.4985L56.1417 27.9315L56.1988 27.3561H71.2459H69.6148L69.6676 28.49C69.6676 27.0861 69.4498 25.8443 68.9056 24.7104C68.3613 23.5765 67.5993 22.7126 66.6196 22.0647C65.64 21.4167 64.4425 21.0928 63.0818 21.0928C61.6667 21.0928 60.4693 21.4167 59.4352 22.0647C58.4011 22.7126 57.5846 23.6305 56.986 24.7644C56.3873 25.8983 56.1151 27.2481 56.1151 28.706C56.1151 30.1638 56.4416 31.5136 57.0947 32.6476C57.7479 33.7814 58.6188 34.6994 59.7617 35.3473C60.9047 35.9952 62.211 36.3191 63.6805 36.3191C64.5514 36.3191 65.4222 36.1572 66.3475 35.8872C67.2184 35.5633 67.9803 35.1853 68.4702 34.7534C68.7424 34.5373 69.0689 34.4294 69.3955 34.4294C69.7221 34.4294 70.0487 34.4834 70.2664 34.6994C70.5929 34.9694 70.7562 35.2934 70.7562 35.6713C70.7562 35.9952 70.6474 36.3192 70.3208 36.5352C69.5044 37.2371 68.4703 37.7771 67.2185 38.209C65.9665 38.6949 64.7691 38.9108 63.626 38.9108Z" fill="url(#paint3_linear_911_9000)"/>
<path d="M55.7005 27.478H56.272L56.3863 29.519H55.7005V27.478Z" fill="url(#paint4_linear_911_9000)"/>
<path d="M69.4169 27.3646H70.1027V28.6119H69.4169V27.3646Z" fill="url(#paint5_linear_911_9000)"/>
<path fill-rule="evenodd" clip-rule="evenodd" d="M85.1795 38.9108C83.2201 38.9108 81.5329 38.4789 80.0633 37.6149C78.5937 36.751 77.3963 35.5632 76.5799 34.0514C75.7091 32.5395 75.3281 30.7577 75.3281 28.8139C75.3281 26.8161 75.7635 25.0343 76.6344 23.5225C77.5052 22.0107 78.7027 20.8228 80.281 19.9589C81.805 19.095 83.6011 18.6631 85.5061 18.6631C87.4655 18.6631 89.2616 19.095 90.7856 19.9589C92.3096 20.8229 93.507 22.0107 94.3778 23.5225C95.2487 25.0344 95.6809 26.7116 95.7353 28.7093L94.1058 29.6778C94.1058 31.4596 93.7248 33.0794 92.9628 34.4833C92.2007 35.8871 91.1667 36.967 89.8059 37.7769C88.3907 38.5329 86.8668 38.9108 85.1795 38.9108ZM85.5605 46.578C83.6011 46.578 81.9138 46.2 80.4443 45.4981C78.9747 44.7962 77.7773 43.8243 76.7976 42.5825C76.5254 42.3125 76.4166 41.9885 76.4711 41.6106C76.5255 41.2867 76.6888 41.0167 77.0153 40.7467C77.3419 40.5307 77.6685 40.4767 78.1039 40.5307C78.4848 40.5847 78.8114 40.8007 79.0292 41.0706C79.7367 41.9345 80.662 42.6364 81.7506 43.1764C82.8391 43.7163 84.1454 43.9863 85.615 43.9863C86.9757 43.9863 88.2275 43.6624 89.3161 43.0145C90.4046 42.3665 91.2755 41.4487 91.9286 40.2607C92.5817 39.0729 92.9083 37.669 92.9083 36.0492V30.4878L93.9968 28.382L95.7353 28.7093L95.7385 36.1572C95.7385 38.1009 95.3031 39.8827 94.4322 41.4485C93.5614 43.0143 92.3639 44.2562 90.84 45.1741C89.2615 46.146 87.5199 46.578 85.5605 46.578ZM85.4516 36.3731C86.9212 36.3731 88.173 36.0492 89.316 35.4012C90.4045 34.7533 91.3298 33.8894 91.9285 32.7015C92.5817 31.5676 92.9082 30.2718 92.9082 28.7599C92.9082 27.3021 92.5817 25.9523 91.9285 24.8183C91.2754 23.6845 90.4045 22.7665 89.316 22.1186C88.2275 21.4707 86.9212 21.1467 85.4516 21.1467C83.982 21.1467 82.7302 21.4707 81.5872 22.1186C80.4443 22.7665 79.5734 23.6844 78.9202 24.8183C78.2671 25.9522 77.9406 27.3021 77.9406 28.7599C77.9406 30.2178 78.2671 31.5676 78.9202 32.7015C79.5734 33.8354 80.4443 34.7533 81.5872 35.4012C82.7302 36.0492 84.0365 36.3731 85.4516 36.3731Z" fill="url(#paint6_linear_911_9000)"/>
<path d="M95.7066 28.6119V29.1789C95.7066 29.2922 94.9065 31.0158 94.9065 31.1065C94.9065 31.1972 94.4493 33.0342 94.2206 33.9413L92.849 34.6217V30.5396L93.6491 28.1583C93.6491 28.1583 95.7066 28.4985 95.7066 28.6119Z" fill="url(#paint7_linear_911_9000)"/>
<path fill-rule="evenodd" clip-rule="evenodd" d="M110.228 38.8805C108.269 38.8805 106.473 38.4486 104.949 37.5847C103.425 36.7207 102.227 35.5329 101.356 34.0211C100.486 32.5092 100.05 30.7274 100.05 28.7836C100.05 26.7859 100.486 25.0581 101.302 23.4923C102.118 21.9804 103.261 20.7925 104.677 19.9287C106.146 19.0647 107.779 18.6328 109.684 18.6328C111.534 18.6328 113.167 19.0647 114.528 19.8747C115.889 20.7386 116.977 21.8725 117.739 23.3302C118.501 24.7881 118.882 26.5159 118.882 28.4057C118.882 28.7836 118.773 29.1076 118.501 29.3236C118.229 29.5396 117.957 29.6476 117.521 29.6476H102.767L102.719 28.4682L102.744 27.9013L102.801 27.3258H117.848H116.217L116.27 28.4597C116.27 27.0558 116.052 25.814 115.508 24.6801C114.963 23.5463 114.201 22.6823 113.222 22.0344C112.242 21.3865 111.045 21.0625 109.684 21.0625C108.269 21.0625 107.071 21.3865 106.037 22.0344C105.003 22.6823 104.187 23.6002 103.588 24.7341C102.989 25.868 102.717 27.2179 102.717 28.6757C102.717 30.1336 103.044 31.4834 103.697 32.6173C104.35 33.7512 105.221 34.6691 106.364 35.317C107.507 35.9649 108.813 36.2889 110.283 36.2889C111.153 36.2889 112.024 36.1269 112.95 35.8569C113.82 35.533 114.582 35.155 115.072 34.7231C115.344 34.5071 115.671 34.3991 115.998 34.3991C116.324 34.3991 116.651 34.4531 116.868 34.6691C117.195 34.9391 117.358 35.2631 117.358 35.641C117.358 35.9649 117.249 36.2889 116.923 36.5049C116.106 37.2069 115.072 37.7468 113.821 38.1787C112.569 38.6646 111.371 38.8805 110.228 38.8805Z" fill="#D9D9D9"/>
<path d="M102.303 27.4477H102.874L102.988 29.4888H102.303V27.4477Z" fill="#D9D9D9"/>
<path d="M116.019 27.3343H116.705V28.5816H116.019V27.3343Z" fill="#D9D9D9"/>
<path fill-rule="evenodd" clip-rule="evenodd" d="M131.225 18.7705C131.498 18.7705 131.77 18.8245 132.042 18.9865C132.26 19.1485 132.477 19.3644 132.64 19.6884L140.587 36.9125C140.75 37.2364 140.75 37.5604 140.641 37.8844C140.532 38.2083 140.26 38.4243 139.934 38.5863C139.553 38.7483 139.172 38.8023 138.845 38.6943C138.519 38.5863 138.247 38.3704 138.083 37.9924L130.463 21.2002H132.096L124.367 37.9384C124.204 38.3163 123.932 38.5323 123.551 38.6403C123.17 38.7483 122.843 38.6943 122.462 38.5323C122.136 38.3703 121.864 38.1004 121.755 37.8304C121.646 37.5064 121.646 37.1824 121.755 36.8585L129.81 19.6884C130.191 19.0944 130.627 18.7705 131.225 18.7705Z" fill="#D9D9D9"/>
<path d="M132.512 21.2408L131.273 22.9837L129.769 21.0141L131.598 20.5605L132.512 21.2408Z" fill="#D9D9D9"/>
<path fill-rule="evenodd" clip-rule="evenodd" d="M154.085 38.9638C152.343 38.9638 150.765 38.5859 149.404 37.884C148.044 37.182 146.955 36.1022 146.139 34.7523C145.322 33.3484 144.941 31.6746 144.941 29.6769V20.2279C144.941 19.85 145.05 19.526 145.322 19.256C145.594 18.986 145.921 18.8781 146.302 18.8781C146.737 18.8781 147.064 18.9861 147.336 19.256C147.608 19.526 147.717 19.85 147.717 20.2279V29.6769C147.717 31.1887 147.989 32.4306 148.588 33.4024C149.186 34.3743 149.948 35.0762 150.928 35.5622C151.908 36.0482 153.051 36.2642 154.303 36.2642C155.5 36.2642 156.589 36.0482 157.568 35.5622C158.548 35.0763 159.31 34.4824 159.854 33.6724C160.399 32.8625 160.725 31.9446 160.725 30.9187L160.725 34.1671C160.671 35.679 161.545 34.5073 161.487 35.0222C160.725 36.2101 159.691 37.182 158.385 37.8839C157.133 38.5859 155.663 38.9638 154.085 38.9638ZM162.14 38.7479C161.705 38.7479 161.378 38.6399 161.106 38.3699C160.834 38.0999 160.725 37.776 160.725 37.3441V20.228C160.725 19.7961 160.834 19.4721 161.106 19.2022C161.378 18.9321 161.705 18.8242 162.14 18.8242C162.576 18.8242 162.902 18.9322 163.174 19.2022C163.447 19.4721 163.555 19.7961 163.555 20.228V37.3441C163.555 37.776 163.447 38.154 163.174 38.3699C162.902 38.5859 162.576 38.7479 162.14 38.7479Z" fill="#D9D9D9"/>
<path d="M161.888 34.9609L160.745 36.0948C160.478 35.5278 159.945 34.2351 159.945 34.0537C159.945 33.8269 160.974 34.0537 161.088 34.0537C161.179 34.0537 161.659 34.6585 161.888 34.9609Z" fill="#D9D9D9"/>
<path fill-rule="evenodd" clip-rule="evenodd" d="M169.706 38.3704C169.434 38.1004 169.27 37.8305 169.27 37.5065C169.27 37.1826 169.379 36.9126 169.597 36.5886L173.803 31.0117L175.49 31.5596L176.062 31.7173L176.618 31.8912L171.774 38.2083C171.502 38.5863 171.121 38.7483 170.685 38.7483C170.304 38.7484 169.978 38.5864 169.706 38.3704ZM183.476 38.7484C183.095 38.7484 182.768 38.6404 182.496 38.3705C182.224 38.1005 182.115 37.7765 182.115 37.3446V31.8912L176.618 31.8912L176.062 31.7173C176.062 31.7993 173.897 31.1892 172.917 30.6492C171.937 30.1093 171.175 29.4074 170.631 28.4894C170.087 27.5715 169.815 26.4917 169.815 25.3038C169.815 24.0619 170.141 22.9281 170.74 21.9561C171.339 20.9843 172.155 20.2284 173.244 19.6344C174.332 19.0945 175.584 18.7705 176.945 18.7705L183.476 18.7706C183.911 18.7706 184.292 18.8786 184.51 19.1486C184.782 19.4186 184.891 19.7425 184.891 20.1744V37.2905C184.891 37.7224 184.728 38.0464 184.456 38.3164C184.184 38.5864 183.857 38.7484 183.476 38.7484ZM176.945 29.4614H182.115V21.4163H176.945C175.693 21.4163 174.659 21.7943 173.842 22.4962C173.026 23.1981 172.59 24.17 172.59 25.3578C172.59 26.6537 173.026 27.6796 173.842 28.3815C174.604 29.0835 175.693 29.4614 176.945 29.4614Z" fill="#D9D9D9"/>
<path d="M173.661 31.2194L173.89 30.8793C174.423 30.9171 175.627 30.9927 175.719 30.9927C175.833 30.9927 176.519 31.3328 176.633 31.4462C176.725 31.5369 176.214 31.9376 175.947 32.1266L175.376 32.0132L173.661 31.2194Z" fill="#D9D9D9"/>
<path fill-rule="evenodd" clip-rule="evenodd" d="M127.143 54.8377C126.98 54.8377 126.817 54.7837 126.708 54.6757C126.599 54.5677 126.545 54.4057 126.545 54.2437V46.9006C126.545 46.7386 126.599 46.5766 126.708 46.4686C126.817 46.3606 126.98 46.3066 127.143 46.3066C127.415 46.3066 127.633 46.4146 127.796 46.6846L131.28 51.706L134.763 46.6846C134.926 46.4146 135.144 46.3066 135.416 46.3066C135.58 46.3066 135.743 46.3606 135.852 46.4686C135.961 46.5766 136.015 46.7386 136.015 46.9006V54.2437C136.015 54.4057 135.961 54.5677 135.852 54.6757C135.743 54.7837 135.579 54.8377 135.416 54.8377C135.253 54.8377 135.09 54.7837 134.981 54.6757C134.872 54.5677 134.818 54.4057 134.818 54.2437V47.7105L135.198 47.8185L131.824 52.6239C131.661 52.84 131.443 53.0019 131.225 53.0019C131.008 53.0019 130.79 52.8939 130.681 52.6239L127.306 47.8185L127.742 47.7105V54.1898C127.742 54.3518 127.687 54.5138 127.579 54.6218C127.47 54.7837 127.307 54.8377 127.143 54.8377Z" fill="url(#paint8_linear_911_9000)"/>
<path d="M127.826 47.4336L127.254 47.7738L127.711 48.4542L127.826 48.3408L128.054 47.7738L127.826 47.4336Z" fill="url(#paint9_linear_911_9000)"/>
<path d="M134.798 47.4336L135.37 47.8872L134.913 48.4542L134.798 48.3408L134.57 47.7738L134.798 47.4336Z" fill="url(#paint10_linear_911_9000)"/>
<path fill-rule="evenodd" clip-rule="evenodd" d="M142.764 54.9457C141.893 54.9457 141.186 54.7837 140.478 54.4057C139.825 54.0278 139.281 53.5418 138.954 52.8939C138.573 52.246 138.41 51.49 138.41 50.6262C138.41 49.7622 138.573 49.0064 138.954 48.3584C139.281 47.7105 139.77 47.1706 140.424 46.8466C141.022 46.4686 141.73 46.3066 142.546 46.3066C143.363 46.3066 144.016 46.4686 144.615 46.8466C145.213 47.2245 145.649 47.7105 145.975 48.3584C146.302 49.0064 146.465 49.7083 146.465 50.5182C146.465 50.6802 146.411 50.8422 146.302 50.8962C146.193 51.0042 146.084 51.0582 145.866 51.0582H139.172V50.0323L145.975 50.0322L145.322 50.5182C145.322 49.9242 145.213 49.3843 144.996 48.8984C144.778 48.4124 144.451 48.0344 144.016 47.7645C143.581 47.4945 143.091 47.3326 142.492 47.3326C141.893 47.3326 141.349 47.4946 140.914 47.7645C140.478 48.0345 140.097 48.4124 139.879 48.9524C139.607 49.4383 139.498 50.0322 139.498 50.6262C139.498 51.2741 139.662 51.814 139.934 52.3C140.206 52.7859 140.587 53.1639 141.077 53.4338C141.567 53.7038 142.111 53.8657 142.764 53.8657C143.145 53.8657 143.526 53.8117 143.907 53.6498C144.288 53.5418 144.615 53.3797 144.832 53.1638C144.941 53.0558 145.105 53.0018 145.213 53.0018C145.377 53.0018 145.486 53.0558 145.594 53.1098C145.758 53.2178 145.812 53.3798 145.812 53.5418C145.812 53.7038 145.758 53.8117 145.649 53.9197C145.322 54.1897 144.887 54.4596 144.342 54.6216C143.798 54.8377 143.254 54.9457 142.764 54.9457Z" fill="url(#paint11_linear_911_9000)"/>
<path d="M139.599 50.0416H139.485C139.485 50.0416 139.485 49.8149 139.256 49.8149C139.156 49.8149 139.142 50.0416 139.142 50.0416V51.0622H139.599C139.599 51.0622 139.601 50.0463 139.599 50.0416Z" fill="url(#paint12_linear_911_9000)"/>
<path d="M145.085 50.4952C145.085 50.4952 145.2 50.155 145.428 49.8149C145.657 49.4747 146.228 49.9283 146.228 49.9283L145.657 50.722L145.085 50.4952Z" fill="url(#paint13_linear_911_9000)"/>
<path fill-rule="evenodd" clip-rule="evenodd" d="M148.152 50.5723V49.2764C148.152 47.8725 148.533 46.6307 149.295 45.5508C150.003 44.471 151.2 43.607 152.724 43.0131L155.065 42.0952C155.228 42.0412 155.391 42.0412 155.5 42.0952C155.609 42.1492 155.718 42.2572 155.772 42.4191C155.827 42.5811 155.827 42.743 155.772 42.8511C155.718 42.9591 155.609 43.067 155.391 43.121L152.942 44.1469C152.017 44.5248 151.255 44.9568 150.711 45.4968C150.166 46.0367 149.731 46.6306 149.513 47.3325C149.241 47.9805 149.241 48.6285 149.121 49.4253L148.751 50.5723H148.152ZM152.398 54.9458C151.581 54.9458 150.819 54.7838 150.166 54.4059C149.513 54.0279 149.023 53.4879 148.642 52.8401C148.261 52.1921 148.098 51.4362 148.098 50.5723L148.751 50.5723C149.295 48.9078 149.132 49.4384 149.241 48.6285C149.567 48.0346 150.003 47.6026 150.547 47.2786C151.091 46.9547 151.745 46.7927 152.452 46.7927C153.214 46.7927 153.922 46.9547 154.575 47.3326C155.174 47.6566 155.663 48.1426 155.99 48.7905C156.317 49.3844 156.534 50.0863 156.534 50.8963C156.534 51.7062 156.371 52.4081 155.99 53.0021C155.609 53.596 155.119 54.0819 154.52 54.4599C153.922 54.7839 153.214 54.9458 152.398 54.9458ZM152.398 53.8659C152.996 53.8659 153.486 53.7579 153.976 53.488C154.412 53.218 154.793 52.8941 155.065 52.4081C155.337 51.9762 155.446 51.4363 155.446 50.8423C155.446 50.2484 155.337 49.7625 155.065 49.2765C154.792 48.8446 154.466 48.4666 153.976 48.2507C153.541 47.9807 152.996 47.8728 152.398 47.8728C151.799 47.8728 151.255 47.9807 150.819 48.2507C150.384 48.5207 150.003 48.8446 149.731 49.2765C149.459 49.7085 149.35 50.2484 149.35 50.8423C149.35 51.4363 149.459 51.9762 149.731 52.4081C150.003 52.8401 150.33 53.2181 150.819 53.488C151.255 53.7039 151.799 53.8659 152.398 53.8659Z" fill="url(#paint14_linear_911_9000)"/>
<path d="M148.172 51.2891C148.057 51.4025 148.057 49.5882 148.172 48.7945C148.286 48.0007 148.515 49.0212 148.515 49.0212C148.591 49.7394 148.743 51.1984 148.743 51.2891C148.743 51.3798 148.286 51.1757 148.172 51.2891Z" fill="url(#paint15_linear_911_9000)"/>
<path d="M149.429 49.0212L148.743 50.6087C148.743 50.6087 148.515 49.0212 148.743 48.9078C148.972 48.7945 149.315 48.5677 149.315 48.5677L149.429 48.6811V49.0212Z" fill="url(#paint16_linear_911_9000)"/>
<path fill-rule="evenodd" clip-rule="evenodd" d="M162.927 54.9389C162.057 54.9389 161.349 54.7768 160.641 54.3989C159.988 54.021 159.444 53.535 159.117 52.887C158.737 52.2391 158.573 51.4832 158.573 50.6193C158.573 49.7554 158.737 48.9995 159.117 48.3516C159.444 47.7037 159.934 47.1637 160.587 46.8397C161.186 46.4618 161.893 46.2998 162.71 46.2998C163.526 46.2998 164.179 46.4618 164.778 46.8397C165.377 47.2177 165.812 47.7037 166.139 48.3516C166.465 48.9995 166.629 49.7015 166.629 50.5114C166.629 50.6734 166.574 50.8353 166.465 50.8893C166.356 50.9973 166.248 51.0513 166.03 51.0513H159.335V50.0255L166.139 50.0254L165.486 50.5113C165.486 49.9174 165.377 49.3774 165.159 48.8915C164.941 48.4056 164.615 48.0276 164.179 47.7577C163.744 47.4877 163.254 47.3257 162.655 47.3257C162.057 47.3257 161.512 47.4877 161.077 47.7577C160.642 48.0277 160.261 48.4056 160.043 48.9455C159.771 49.4315 159.662 50.0254 159.662 50.6193C159.662 51.2673 159.825 51.8072 160.097 52.2931C160.369 52.7791 160.75 53.1571 161.24 53.427C161.73 53.697 162.274 53.8589 162.927 53.8589C163.308 53.8589 163.69 53.8049 164.07 53.6429C164.451 53.5349 164.778 53.3729 164.996 53.157C165.105 53.049 165.268 52.995 165.377 52.995C165.54 52.995 165.649 53.049 165.758 53.103C165.921 53.211 165.975 53.373 165.975 53.5349C165.975 53.6969 165.921 53.8049 165.812 53.9129C165.486 54.1828 165.05 54.4528 164.506 54.6148C163.962 54.8308 163.417 54.9389 162.927 54.9389Z" fill="url(#paint17_linear_911_9000)"/>
<path d="M159.762 50.0348H159.648C159.648 50.0348 159.648 49.808 159.419 49.808C159.32 49.808 159.305 50.0348 159.305 50.0348V51.0553H159.762C159.762 51.0553 159.764 50.0395 159.762 50.0348Z" fill="url(#paint18_linear_911_9000)"/>
<path d="M165.249 50.4884C165.249 50.4884 165.363 50.1482 165.592 49.808C165.82 49.4678 166.392 49.9214 166.392 49.9214L165.82 50.7152L165.249 50.4884Z" fill="url(#paint19_linear_911_9000)"/>
<path fill-rule="evenodd" clip-rule="evenodd" d="M171.829 46.3066C171.937 46.3066 172.046 46.3606 172.155 46.4146C172.264 46.4686 172.318 46.5766 172.427 46.7386L175.856 54.1358C175.911 54.2977 175.911 54.4057 175.856 54.5677C175.802 54.6757 175.693 54.7837 175.53 54.8916C175.366 54.9456 175.203 54.9996 175.094 54.9456C174.931 54.8916 174.822 54.7836 174.768 54.6217L171.502 47.4405H172.209L168.889 54.6217C168.835 54.7837 168.726 54.8917 168.563 54.9456C168.399 54.9996 168.236 54.9996 168.073 54.8916C167.91 54.8376 167.801 54.7296 167.746 54.5677C167.692 54.4597 167.692 54.2977 167.746 54.1358L171.23 46.7926C171.393 46.4686 171.611 46.3066 171.829 46.3066Z" fill="url(#paint20_linear_911_9000)"/>
<path d="M171.261 49.1345C171.375 49.1345 172.29 47.4336 172.29 47.4336L171.375 47.2068C171.375 47.2068 171.147 49.1345 171.261 49.1345Z" fill="url(#paint21_linear_911_9000)"/>
<path fill-rule="evenodd" clip-rule="evenodd" d="M181.517 54.9999C180.809 54.9999 180.156 54.8379 179.612 54.568C179.067 54.298 178.632 53.92 178.305 53.4341C177.979 52.9482 177.815 52.4082 177.815 51.7603V46.8469C177.815 46.6849 177.87 46.5229 177.979 46.4149C178.088 46.3069 178.251 46.2529 178.414 46.2529C178.578 46.2529 178.741 46.3069 178.85 46.4149C178.958 46.5229 179.013 46.6849 179.013 46.8469V49.0606H181.571C182.279 49.0606 182.877 49.1686 183.367 49.4385C183.911 49.6545 184.292 50.0324 184.565 50.4644C184.837 50.8963 185 51.3823 185 51.9762C185 52.5702 184.837 53.0561 184.565 53.4881C184.292 53.92 183.857 54.298 183.313 54.568C182.768 54.8379 182.279 54.9999 181.517 54.9999ZM181.517 53.92C182.224 53.92 182.768 53.758 183.204 53.4341C183.639 53.1102 183.857 52.6782 183.857 52.0302C183.857 51.4363 183.639 51.0044 183.258 50.6804C182.877 50.3564 182.333 50.1944 181.625 50.1944H179.067V51.8142C179.067 52.1922 179.176 52.5702 179.394 52.8941C179.612 53.218 179.884 53.434 180.265 53.65C180.646 53.812 181.027 53.92 181.517 53.92Z" fill="url(#paint22_linear_911_9000)"/>
<defs>
<linearGradient id="paint0_linear_911_9000" x1="33.2815" y1="39.1255" x2="56.0359" y2="27.1562" gradientUnits="userSpaceOnUse">
<stop stop-color="#F8FAFB"/>
<stop offset="1" stop-color="#FAFAFA"/>
<stop offset="1" stop-color="white"/>
</linearGradient>
<linearGradient id="paint1_linear_911_9000" x1="33.2815" y1="39.1255" x2="56.0359" y2="27.1562" gradientUnits="userSpaceOnUse">
<stop stop-color="#F8FAFB"/>
<stop offset="1" stop-color="#FAFAFA"/>
<stop offset="1" stop-color="white"/>
</linearGradient>
<linearGradient id="paint2_linear_911_9000" x1="0.624818" y1="39.1255" x2="23.3792" y2="27.1561" gradientUnits="userSpaceOnUse">
<stop stop-color="#F8FAFB"/>
<stop offset="1" stop-color="#FAFAFA"/>
<stop offset="1" stop-color="white"/>
</linearGradient>
<linearGradient id="paint3_linear_911_9000" x1="54.2013" y1="38.9108" x2="71.3006" y2="19.842" gradientUnits="userSpaceOnUse">
<stop stop-color="#F8FAFB"/>
<stop offset="1" stop-color="#FAFAFA"/>
<stop offset="1" stop-color="white"/>
</linearGradient>
<linearGradient id="paint4_linear_911_9000" x1="54.2013" y1="38.9108" x2="71.3006" y2="19.842" gradientUnits="userSpaceOnUse">
<stop stop-color="#F8FAFB"/>
<stop offset="1" stop-color="#FAFAFA"/>
<stop offset="1" stop-color="white"/>
</linearGradient>
<linearGradient id="paint5_linear_911_9000" x1="54.2013" y1="38.9108" x2="71.3006" y2="19.842" gradientUnits="userSpaceOnUse">
<stop stop-color="#F8FAFB"/>
<stop offset="1" stop-color="#FAFAFA"/>
<stop offset="1" stop-color="white"/>
</linearGradient>
<linearGradient id="paint6_linear_911_9000" x1="76.1445" y1="46.578" x2="99.655" y2="25.9669" gradientUnits="userSpaceOnUse">
<stop stop-color="#F8FAFB"/>
<stop offset="1" stop-color="#FAFAFA"/>
<stop offset="1" stop-color="white"/>
</linearGradient>
<linearGradient id="paint7_linear_911_9000" x1="76.1445" y1="46.578" x2="99.655" y2="25.9669" gradientUnits="userSpaceOnUse">
<stop stop-color="#F8FAFB"/>
<stop offset="1" stop-color="#FAFAFA"/>
<stop offset="1" stop-color="white"/>
</linearGradient>
<linearGradient id="paint8_linear_911_9000" x1="126.923" y1="54.8377" x2="133.884" y2="45.5726" gradientUnits="userSpaceOnUse">
<stop stop-color="#F8FAFB"/>
<stop offset="1" stop-color="#FAFAFA"/>
<stop offset="1" stop-color="white"/>
</linearGradient>
<linearGradient id="paint9_linear_911_9000" x1="126.923" y1="54.8377" x2="133.884" y2="45.5726" gradientUnits="userSpaceOnUse">
<stop stop-color="#F8FAFB"/>
<stop offset="1" stop-color="#FAFAFA"/>
<stop offset="1" stop-color="white"/>
</linearGradient>
<linearGradient id="paint10_linear_911_9000" x1="126.923" y1="54.8377" x2="133.884" y2="45.5726" gradientUnits="userSpaceOnUse">
<stop stop-color="#F8FAFB"/>
<stop offset="1" stop-color="#FAFAFA"/>
<stop offset="1" stop-color="white"/>
</linearGradient>
<linearGradient id="paint11_linear_911_9000" x1="138.732" y1="54.9457" x2="146.026" y2="46.7913" gradientUnits="userSpaceOnUse">
<stop stop-color="#F8FAFB"/>
<stop offset="1" stop-color="#FAFAFA"/>
<stop offset="1" stop-color="white"/>
</linearGradient>
<linearGradient id="paint12_linear_911_9000" x1="138.732" y1="54.9457" x2="146.026" y2="46.7913" gradientUnits="userSpaceOnUse">
<stop stop-color="#F8FAFB"/>
<stop offset="1" stop-color="#FAFAFA"/>
<stop offset="1" stop-color="white"/>
</linearGradient>
<linearGradient id="paint13_linear_911_9000" x1="138.732" y1="54.9457" x2="146.026" y2="46.7913" gradientUnits="userSpaceOnUse">
<stop stop-color="#F8FAFB"/>
<stop offset="1" stop-color="#FAFAFA"/>
<stop offset="1" stop-color="white"/>
</linearGradient>
<linearGradient id="paint14_linear_911_9000" x1="148.424" y1="54.9458" x2="159.065" y2="46.5845" gradientUnits="userSpaceOnUse">
<stop stop-color="#F8FAFB"/>
<stop offset="1" stop-color="#FAFAFA"/>
<stop offset="1" stop-color="white"/>
</linearGradient>
<linearGradient id="paint15_linear_911_9000" x1="148.424" y1="54.9458" x2="159.065" y2="46.5845" gradientUnits="userSpaceOnUse">
<stop stop-color="#F8FAFB"/>
<stop offset="1" stop-color="#FAFAFA"/>
<stop offset="1" stop-color="white"/>
</linearGradient>
<linearGradient id="paint16_linear_911_9000" x1="148.424" y1="54.9458" x2="159.065" y2="46.5845" gradientUnits="userSpaceOnUse">
<stop stop-color="#F8FAFB"/>
<stop offset="1" stop-color="#FAFAFA"/>
<stop offset="1" stop-color="white"/>
</linearGradient>
<linearGradient id="paint17_linear_911_9000" x1="158.895" y1="54.9389" x2="166.189" y2="46.7845" gradientUnits="userSpaceOnUse">
<stop stop-color="#F8FAFB"/>
<stop offset="1" stop-color="#FAFAFA"/>
<stop offset="1" stop-color="white"/>
</linearGradient>
<linearGradient id="paint18_linear_911_9000" x1="158.895" y1="54.9389" x2="166.189" y2="46.7845" gradientUnits="userSpaceOnUse">
<stop stop-color="#F8FAFB"/>
<stop offset="1" stop-color="#FAFAFA"/>
<stop offset="1" stop-color="white"/>
</linearGradient>
<linearGradient id="paint19_linear_911_9000" x1="158.895" y1="54.9389" x2="166.189" y2="46.7845" gradientUnits="userSpaceOnUse">
<stop stop-color="#F8FAFB"/>
<stop offset="1" stop-color="#FAFAFA"/>
<stop offset="1" stop-color="white"/>
</linearGradient>
<linearGradient id="paint20_linear_911_9000" x1="168.033" y1="54.9811" x2="175.346" y2="46.7014" gradientUnits="userSpaceOnUse">
<stop stop-color="#F8FAFB"/>
<stop offset="1" stop-color="#FAFAFA"/>
<stop offset="1" stop-color="white"/>
</linearGradient>
<linearGradient id="paint21_linear_911_9000" x1="168.033" y1="54.9811" x2="175.346" y2="46.7014" gradientUnits="userSpaceOnUse">
<stop stop-color="#F8FAFB"/>
<stop offset="1" stop-color="#FAFAFA"/>
<stop offset="1" stop-color="white"/>
</linearGradient>
<linearGradient id="paint22_linear_911_9000" x1="178.103" y1="54.9999" x2="185.533" y2="47.6827" gradientUnits="userSpaceOnUse">
<stop stop-color="#F8FAFB"/>
<stop offset="1" stop-color="#FAFAFA"/>
<stop offset="1" stop-color="white"/>
</linearGradient>
</defs>
</svg>
