<svg width="16" height="18" viewBox="0 0 16 18" fill="none" xmlns="http://www.w3.org/2000/svg">
<path fill-rule="evenodd" clip-rule="evenodd" d="M4.04166 7.33335C4.04166 5.14723 5.81387 3.37502 8 3.37502C10.1861 3.37502 11.9583 5.14723 11.9583 7.33335C11.9583 9.51948 10.1861 11.2917 8 11.2917C5.81387 11.2917 4.04166 9.51948 4.04166 7.33335ZM8 4.62502C6.50422 4.62502 5.29166 5.83758 5.29166 7.33335C5.29166 8.82913 6.50422 10.0417 8 10.0417C9.49577 10.0417 10.7083 8.82913 10.7083 7.33335C10.7083 5.83758 9.49577 4.62502 8 4.62502Z" fill="white"/>
<path fill-rule="evenodd" clip-rule="evenodd" d="M0.936965 6.38073C1.23224 2.79855 4.2257 0.041687 7.82002 0.041687H8.17997C11.7743 0.041687 14.7678 2.79855 15.063 6.38073C15.2216 8.30502 14.6272 10.2158 13.405 11.7105L9.41081 16.5953C8.68164 17.4871 7.31835 17.4871 6.58918 16.5953L2.59496 11.7105C1.37275 10.2158 0.778349 8.30502 0.936965 6.38073ZM7.82002 1.29169C4.87624 1.29169 2.42457 3.54958 2.18274 6.48342C2.05073 8.08495 2.54543 9.67522 3.56265 10.9192L7.55687 15.8041C7.78589 16.0842 8.2141 16.0842 8.44313 15.8041L12.4373 10.9192C13.4546 9.67521 13.9493 8.08495 13.8173 6.48342C13.5754 3.54958 11.1238 1.29169 8.17997 1.29169H7.82002Z" fill="white"/>
</svg>
