<svg width="38" height="43" viewBox="0 0 38 43" fill="none" xmlns="http://www.w3.org/2000/svg">
<path fill-rule="evenodd" clip-rule="evenodd" d="M9.2469 17.6586C12.0768 24.6316 17.1126 30.1753 23.3727 33.1792L23.3925 33.1887L24.6018 33.7987C26.1418 34.5751 27.9519 34.0237 28.9393 32.4773L30.9571 29.3173C31.0803 29.1243 31.0486 28.8558 30.8848 28.7063L27.3623 25.4907C27.1872 25.3308 26.9297 25.368 26.7957 25.5726L25.4247 27.6659C25.0918 28.1743 24.4905 28.351 23.9811 28.0901C19.3001 25.693 15.5386 21.4365 13.4202 16.1396C13.1896 15.5631 13.3457 14.8827 13.795 14.506L15.6449 12.9546C15.8257 12.803 15.8586 12.5117 15.7173 12.3135L12.8752 8.32697C12.7431 8.14169 12.506 8.1057 12.3354 8.24504L9.5277 10.5387C8.15211 11.6624 7.66768 13.7279 8.36983 15.4756L9.24595 17.6563C9.24627 17.6571 9.24658 17.6579 9.2469 17.6586ZM22.4355 35.6487C15.6335 32.3814 10.1625 26.356 7.08758 18.7777L7.08573 18.7731L6.20777 16.5878C5.03753 13.675 5.84491 10.2325 8.13755 8.35964L10.9453 6.06602C12.1393 5.09062 13.799 5.34254 14.7236 6.63952L17.5658 10.6261C18.5547 12.0131 18.3243 14.0527 17.059 15.1138L15.999 16.0028C17.7896 19.9344 20.6275 23.1457 24.102 25.172L24.8876 23.9724C25.8253 22.5406 27.6277 22.28 28.8535 23.399L32.376 26.6146C33.5225 27.6613 33.7449 29.5401 32.8822 30.8912L30.8644 34.0513C29.2188 36.6285 26.2019 37.5476 23.6353 36.2536L22.4355 35.6487Z" fill="#002C69"/>
</svg>
