<svg width="20" height="20" viewBox="0 0 20 20" fill="none" xmlns="http://www.w3.org/2000/svg">
<path fill-rule="evenodd" clip-rule="evenodd" d="M4.86682 8.21362C6.35624 11.4569 9.00665 14.0353 12.3015 15.4325L12.3119 15.4369L12.9484 15.7206C13.7589 16.0817 14.7116 15.8253 15.2313 15.106L16.2932 13.6362C16.3581 13.5465 16.3414 13.4216 16.2552 13.3521L14.4012 11.8564C14.3091 11.7821 14.1735 11.7994 14.103 11.8945L13.3815 12.8682C13.2062 13.1046 12.8898 13.1868 12.6216 13.0655C10.158 11.9505 8.17822 9.97075 7.06328 7.50708C6.94193 7.23894 7.0241 6.92248 7.26056 6.74725L8.2342 6.0257C8.32934 5.95519 8.34666 5.81967 8.27231 5.72751L6.77644 3.8733C6.70691 3.78713 6.58213 3.77039 6.49235 3.8352L5.01461 4.902C4.29062 5.42465 4.03565 6.38536 4.4052 7.19823L4.86632 8.21253C4.86649 8.2129 4.86665 8.21326 4.86682 8.21362ZM11.8082 16.5811C8.22818 15.0614 5.34871 12.2589 3.73034 8.73411L3.72936 8.73199L3.26728 7.71556C2.65136 6.36077 3.0763 4.75959 4.28295 3.8885L5.76069 2.8217C6.38913 2.36803 7.26265 2.4852 7.74932 3.08844L9.24519 4.94265C9.76565 5.58779 9.64442 6.53645 8.97846 7.02998L8.42054 7.44344C9.36297 9.2721 10.8566 10.7658 12.6853 11.7082L13.0987 11.1503C13.5923 10.4843 14.5409 10.3631 15.1861 10.8835L17.04 12.3792C17.6435 12.866 17.7605 13.7399 17.3064 14.3683L16.2445 15.8381C15.3783 17.0368 13.7905 17.4643 12.4397 16.8624L11.8082 16.5811Z" fill="white"/>
</svg>
