<svg width="25" height="26" viewBox="0 0 25 26" fill="none" xmlns="http://www.w3.org/2000/svg">
<circle cx="12.5" cy="13.208" r="12.5" fill="white"/>
<path d="M5.84419 13.4418L8.718 14.5134L9.83829 18.1178C9.887 18.3614 10.1793 18.4101 10.3741 18.2639L11.9815 16.9488C12.1276 16.8027 12.3711 16.8027 12.566 16.9488L15.4398 19.0433C15.6346 19.1894 15.9269 19.092 15.9756 18.8484L18.1187 8.61967C18.1674 8.37613 17.9239 8.13258 17.6804 8.23L5.84419 12.8086C5.55194 12.906 5.55194 13.3444 5.84419 13.4418ZM9.69217 13.9776L15.3423 10.5193C15.4398 10.4706 15.5372 10.6167 15.4398 10.6654L10.8125 15.0005C10.6663 15.1466 10.5202 15.3414 10.5202 15.585L10.3741 16.754C10.3741 16.9001 10.1305 16.9488 10.0818 16.754L9.49732 14.6108C9.3512 14.3673 9.44863 14.075 9.69217 13.9776Z" fill="#62BFFF"/>
</svg>
