<svg width="23" height="23" viewBox="0 0 23 23" fill="none" xmlns="http://www.w3.org/2000/svg">
<path d="M8.74991 4.68765C9.26768 4.68765 9.68741 5.10739 9.68741 5.62515V7.81265H11.8749C12.3927 7.81265 12.8124 8.23239 12.8124 8.75015C12.8124 9.26792 12.3927 9.68765 11.8749 9.68765H9.68741V11.8752C9.68741 12.3929 9.26768 12.8127 8.74991 12.8127C8.23214 12.8127 7.81241 12.3929 7.81241 11.8752V9.68765H5.62491C5.10714 9.68765 4.68741 9.26792 4.68741 8.75015C4.68741 8.23239 5.10714 7.81265 5.62491 7.81265H7.81241V5.62515C7.81241 5.10739 8.23214 4.68765 8.74991 4.68765Z" fill="white"/>
<path fill-rule="evenodd" clip-rule="evenodd" d="M2.74814 14.6808C5.81912 17.7518 10.6684 17.9606 13.9812 15.3073L20.4258 21.7518C20.7919 22.118 21.3855 22.118 21.7516 21.7518C22.1177 21.3857 22.1177 20.7921 21.7516 20.426L15.3071 13.9815C17.9604 10.6686 17.7515 5.81936 14.6806 2.74839C11.3855 -0.546662 6.04319 -0.546663 2.74814 2.74839C-0.546907 6.04343 -0.546907 11.3858 2.74814 14.6808ZM4.07397 4.07421C1.51115 6.63703 1.51115 10.7922 4.07397 13.355C6.6349 15.9159 10.7858 15.9178 13.3491 13.3606L13.3547 13.355L13.3604 13.3493C15.9176 10.7861 15.9157 6.63515 13.3547 4.07421C10.7919 1.5114 6.63678 1.5114 4.07397 4.07421Z" fill="white"/>
</svg>
